<svg width="18" height="18" viewBox="0 0 18 18" fill="none" xmlns="http://www.w3.org/2000/svg">
<path fill-rule="evenodd" clip-rule="evenodd" d="M0.898438 4.95288L0.902923 4.95288V3.33414H2.52166L2.52214 1.71541H4.14087L4.14135 0.0966797H7.37481H8.99403H10.6132H12.2325H13.8517V1.71541L15.4709 1.71541V3.33415L15.4754 3.33414H17.0946V4.95288L17.0901 4.95288V6.57161H15.4714V8.19034H13.8526V6.57161L12.2329 6.57161H10.6137H8.99451H7.37529H5.75608H4.13687H2.51765H0.898438V4.95288Z" fill="white"/>
<path d="M12.2285 13.0466L12.2329 13.0466V11.4279H10.6142V13.0466L10.6097 13.0466V14.6653H12.2285V13.0466Z" fill="white"/>
<path d="M2.51765 6.57161H4.13687L4.13639 8.19036H2.51765V6.57161Z" fill="white"/>
<path d="M5.75608 6.57161H7.37529L7.37481 8.19036H5.75608V6.57161Z" fill="white"/>
<path d="M8.99403 8.19039L7.37481 8.19036L7.37529 9.80913H8.99403V8.19039Z" fill="white"/>
<path d="M7.37529 9.80913H8.99403V11.4279H7.37529V9.80913Z" fill="white"/>
<path d="M8.99403 11.4279H7.37529V13.0467H8.99403V11.4279Z" fill="white"/>
<path d="M7.37529 13.0467H8.99403V14.6654H7.37529V13.0467Z" fill="white"/>
<path d="M7.37529 14.6654L5.75608 14.6654V16.2842H7.37481L7.37529 14.6654Z" fill="white"/>
<path d="M7.37481 16.2842L8.99403 16.2842V17.9029H7.37529L7.37481 16.2842Z" fill="white"/>
<path d="M5.75608 8.19036H4.13639L4.13687 9.80909H5.7556L5.75608 8.19036Z" fill="white"/>
<path d="M13.8526 8.19034L12.2334 8.19034V9.80908L12.2329 11.4279L13.8522 11.4278L13.8526 8.19034Z" fill="white"/>
<path d="M10.6137 6.57161H12.2329L12.2334 8.19034L10.6142 8.1904L10.6137 6.57161Z" fill="white"/>
<path d="M10.6142 8.1904L8.99499 8.19074V9.80947H10.6137L10.6142 8.1904Z" fill="white"/>
<path d="M10.6137 9.80947L12.2334 9.80908L12.2329 11.4279H10.6142L10.6137 9.80947Z" fill="white"/>
<path d="M10.6137 14.6654L8.99403 14.6654V16.2842L10.6137 16.2842V14.6654Z" fill="white"/>
<path d="M5.7556 9.80909H4.13687V11.4279H5.7556V9.80909Z" fill="white"/>
<path d="M5.7556 11.4279H4.13687V13.0466H5.7556V11.4279Z" fill="white"/>
<path d="M13.8522 11.4278L12.2329 11.4279V13.0466H13.8522V11.4278Z" fill="white"/>
<path d="M4.13687 13.0466L2.51765 13.0466V16.2841H4.13639L4.13687 13.0466Z" fill="white"/>
<path d="M15.4714 13.0466L13.8522 13.0466L13.8526 16.2841H15.4714V13.0466Z" fill="white"/>
<path d="M5.75608 16.2842L4.13639 16.2841L4.13687 17.9029H5.7556L5.75608 16.2842Z" fill="white"/>
<path d="M13.8526 16.2841L12.2334 16.2841V17.9028H13.8522L13.8526 16.2841Z" fill="white"/>
</svg>
