<svg width="162" height="61" viewBox="0 0 162 61" fill="none" xmlns="http://www.w3.org/2000/svg">
<path fill-rule="evenodd" clip-rule="evenodd" d="M6.75605 20.5024H11.2597V22.7623H15.7633V27.2779H18.0157V31.7947H13.512V27.279H11.2597V25.0192H6.75606V27.279H4.50365V31.7947H0V27.2779H2.25241V22.7623H6.75605V20.5024ZM4.50365 31.7955H0V36.9879H4.50365V31.7955ZM13.512 31.7955H18.0157V36.9879H13.512V31.7955Z" fill="black"/>
<path fill-rule="evenodd" clip-rule="evenodd" d="M51.4096 19.7119H46.9059V21.9707H42.4023V26.4874H40.1499V31.0041H42.4023V35.5208H46.9059V37.7806H51.4096V33.2638H46.906V31.004H44.6536V26.4875H46.906V24.2287H51.4096V19.7119ZM53.6619 31.004H51.4096V35.5208H55.9133V31.0041H58.1656V26.4874H55.9133V21.9707H51.4096V26.4875H53.6619V31.004Z" fill="black"/>
<path d="M80.6313 20.4397C82.3746 20.4397 83.8228 20.8182 84.9747 21.573C86.1267 22.3289 86.9978 23.3225 87.5902 24.5527C88.1827 25.7839 88.4778 27.1549 88.4778 28.6656V37.0544H83.8919V29.4436C83.8919 28.6018 83.7679 27.8404 83.52 27.1604C83.272 26.4804 82.8847 25.9358 82.357 25.5253C81.8293 25.1149 81.1458 24.9103 80.3065 24.9103C79.4672 24.9103 78.7892 25.1105 78.2725 25.5088C77.7557 25.9083 77.3739 26.4485 77.126 27.1285C76.878 27.8085 76.7541 28.5589 76.7541 29.3797V37.0555H72.1681V29.4116C72.1681 28.5699 72.0496 27.8085 71.8127 27.1285C71.5757 26.4485 71.1884 25.9094 70.6497 25.5088C70.111 25.1094 69.433 24.9103 68.6157 24.9103C67.7544 24.9103 67.0655 25.116 66.5487 25.5253C66.032 25.9358 65.6546 26.4804 65.4187 27.1604C65.1817 27.8404 65.0632 28.5908 65.0632 29.4116V37.0555H60.4773V28.6667C60.4773 27.1769 60.768 25.8114 61.3495 24.5703C61.931 23.3291 62.7977 22.33 63.9486 21.5741C65.1005 20.8182 66.5366 20.4408 68.2602 20.4408C69.6371 20.4408 70.8275 20.695 71.8291 21.2022C72.8297 21.7095 73.6053 22.4115 74.1539 23.3071C74.7025 24.2039 74.9877 25.2448 75.0097 26.432H73.9762C73.997 25.2448 74.2987 24.2028 74.8802 23.3071C75.4617 22.4115 76.2472 21.7095 77.2379 21.2022C78.2275 20.695 79.3575 20.4408 80.6291 20.4408L80.6313 20.4397Z" fill="black"/>
<path d="M29.2864 20.0259C24.4844 20.0259 20.5918 23.9287 20.5918 28.7459C20.5918 33.563 24.4833 37.4658 29.2864 37.4658C34.0896 37.4658 37.981 33.563 37.981 28.7459C37.981 23.9287 34.0885 20.0259 29.2864 20.0259ZM29.2864 33.1053C26.8848 33.1053 24.9397 31.1533 24.9397 28.7459C24.9397 26.3384 26.8859 24.3864 29.2864 24.3864C31.6869 24.3864 33.6332 26.3384 33.6332 28.7459C33.6332 31.1533 31.6869 33.1053 29.2864 33.1053Z" fill="black"/>
<path d="M99.8329 20.0259C95.0309 20.0259 91.1383 23.9287 91.1383 28.7459C91.1383 33.563 95.0298 37.4658 99.8329 37.4658C104.636 37.4658 108.528 33.563 108.528 28.7459C108.528 23.9287 104.635 20.0259 99.8329 20.0259ZM99.8329 33.1053C97.4313 33.1053 95.4862 31.1533 95.4862 28.7459C95.4862 26.3384 97.4324 24.3864 99.8329 24.3864C102.233 24.3864 104.18 26.3384 104.18 28.7459C104.18 31.1533 102.233 33.1053 99.8329 33.1053Z" fill="black"/>
<path d="M114.31 37.279C115.242 35.1204 119.412 26.8294 121.718 22.5613C123.287 19.6178 128.291 11.5722 129.175 10.591C129.518 10.1495 130.009 10.0514 130.352 10.3948C130.499 10.542 130.45 10.8363 129.959 11.7684C129.665 12.4552 129.273 12.9949 129.125 12.9949C128.782 13.093 124.857 19.3725 122.601 23.4444C119.902 28.3503 115.193 37.6714 115.34 37.7695C115.34 37.8186 116.665 37.7205 118.185 37.6224C121.865 37.328 131.333 37.279 133.05 37.5733C135.111 37.8677 135.699 38.3092 135.16 38.996C134.816 39.4375 133.933 39.3885 133.933 38.947C133.933 38.7998 133.884 38.6035 133.737 38.5545C133.639 38.5054 132.167 38.3582 130.45 38.2601C128.046 38.162 126.427 38.162 123.287 38.2601C118.725 38.4564 113.181 38.8979 110.827 39.2413C109.944 39.3885 109.06 39.5357 108.815 39.5357C108.57 39.5847 108.325 39.5847 108.226 39.4866C107.932 39.2904 108.128 38.8488 108.619 38.7017C109.208 38.5054 112.691 38.0148 113.427 38.0148C113.966 38.0148 114.015 37.9658 114.31 37.279ZM138.179 28.7918C139.111 28.154 139.356 28.2031 139.356 28.7427C139.356 28.8409 139.16 29.0861 138.816 29.4296C137.835 30.3617 136.02 31.7844 134.794 32.4712C132.635 33.6486 131.409 33.7958 130.427 33.0108C129.888 32.5693 129.839 32.4221 129.839 31.6863V30.9013L128.661 31.7844C126.405 33.5014 124.786 34.0901 123.903 33.5505C122.676 32.8146 124.344 29.822 126.748 28.4974C127.435 28.105 128.073 27.9087 128.612 27.8597C129.299 27.8597 129.79 28.154 130.084 28.7427L130.378 29.2333L130.869 28.8409C131.409 28.3993 131.605 28.3993 131.948 28.6937C132.095 28.8899 132.046 29.0861 131.605 29.8711C130.967 31.0485 130.771 31.9316 131.065 32.3731C131.212 32.6184 131.36 32.6674 131.948 32.6184C133.028 32.4712 134.45 31.7353 136.707 29.9201C137.345 29.4296 137.835 29.0861 138.179 28.7918ZM128.269 30.9013C129.397 30.0673 129.397 30.0183 129.299 29.5277C129.201 29.2333 129.054 28.939 129.005 28.8899C128.907 28.8409 128.809 28.7918 128.71 28.7918C127.631 28.7427 124.982 31.0485 124.639 32.4712C124.491 33.109 124.786 33.0599 126.061 32.324C126.601 32.0297 127.582 31.3429 128.269 30.9013ZM153.004 28.5956C153.053 28.8409 152.758 29.1352 151.973 29.7239C149.373 31.7353 147.902 32.0297 144.958 32.275C143.928 32.3731 143.535 32.4712 142.799 32.9127C140.886 33.943 138.188 33.5014 139.66 32.3731C140.199 31.9806 141.082 31.6863 142.211 31.5391C142.947 31.49 143.192 31.3919 143.584 30.9504C144.664 29.822 145.056 28.6446 144.369 28.6446C143.388 28.6446 140.739 30.607 138.335 33.158C137.06 34.5317 136.569 34.826 136.226 34.5317C135.98 34.3845 136.078 33.943 136.716 32.4221C137.452 30.607 139.267 27.1729 140.739 24.7199C141.965 22.7085 145.056 18.2442 145.498 17.8026C145.841 17.5083 146.479 17.5574 146.577 17.9008C146.577 18.0479 146.037 18.9801 145.252 20.0593C142.898 23.3953 141.033 26.486 138.973 30.4107L138.335 31.5391L139.905 30.2636C142.554 28.0069 144.418 27.271 145.449 28.105C146.086 28.5956 146.037 29.4296 145.351 30.5089C145.056 30.9994 144.86 31.3919 144.909 31.441C145.007 31.5391 146.92 31.1957 147.558 30.9504C148.785 30.5089 149.962 30.2145 151.139 29.2824C152.366 28.3012 152.906 28.0069 153.004 28.5956ZM159.904 28.5956C161.277 28.105 161.67 28.105 161.67 28.5465C161.67 28.7918 161.375 28.988 160.296 29.3805C159.56 29.6749 157.892 30.2636 156.322 30.8523L153.526 31.9806L153.428 32.7165C153.232 33.7958 152.545 34.7279 151.564 35.1204C150.681 35.5128 149.65 35.5619 149.16 35.2675C148.718 34.9732 148.718 34.1392 149.209 33.6486C149.552 33.2561 150.877 32.275 151.711 31.8825L152.103 31.6372L151.76 30.4107C151.515 29.2824 151.466 29.0861 151.711 28.5465C152.005 27.9087 152.496 27.5163 152.937 27.5163C153.085 27.5163 153.183 27.5163 153.281 27.5653C153.722 27.7616 153.722 28.0559 153.281 28.3503C152.741 28.6446 152.594 29.2333 152.839 30.1654C153.085 31.0976 153.183 31.2447 153.526 31.0485C153.624 30.9504 154.9 30.4598 156.273 29.9201C157.647 29.3805 159.168 28.8899 159.904 28.5956ZM151.171 34.2373C151.907 33.6977 152.545 32.7165 152.103 32.7165C151.907 32.7165 150.141 34.0411 149.945 34.3354C149.798 34.5807 149.847 34.5807 150.19 34.5807C150.435 34.5807 150.877 34.4336 151.171 34.2373Z" fill="black"/>
</svg>
