<?xml version="1.0" encoding="UTF-8" standalone="no"?><!DOCTYPE svg PUBLIC "-//W3C//DTD SVG 1.1//EN" "http://www.w3.org/Graphics/SVG/1.1/DTD/svg11.dtd"><svg width="492px" height="90px" version="1.1" xmlns="http://www.w3.org/2000/svg" xmlns:xlink="http://www.w3.org/1999/xlink" xml:space="preserve" xmlns:serif="http://www.serif.com/" style="fill-rule:evenodd;clip-rule:evenodd;stroke-linejoin:round;stroke-miterlimit:2;"><path d="M245.005,30.192C250.302,30.192 254.702,31.343 258.203,33.636C261.703,35.933 264.35,38.952 266.15,42.69C267.951,46.431 268.847,50.597 268.847,55.188L268.847,80.678L254.912,80.678L254.912,57.552C254.912,54.994 254.536,52.68 253.782,50.614C253.029,48.548 251.852,46.893 250.249,45.646C248.645,44.399 246.568,43.777 244.018,43.777C241.468,43.777 239.407,44.385 237.837,45.596C236.267,46.809 235.107,48.451 234.354,50.517C233.6,52.583 233.223,54.864 233.223,57.358L233.223,80.681L219.289,80.681L219.289,57.455C219.289,54.897 218.929,52.583 218.208,50.517C217.488,48.451 216.312,46.813 214.675,45.596C213.038,44.382 210.978,43.777 208.494,43.777C205.877,43.777 203.784,44.402 202.213,45.646C200.643,46.893 199.496,48.548 198.78,50.614C198.06,52.68 197.7,54.961 197.7,57.455L197.7,80.681L183.765,80.681L183.765,55.191C183.765,50.664 184.648,46.515 186.415,42.744C188.182,38.972 190.815,35.936 194.312,33.64C197.813,31.343 202.177,30.196 207.414,30.196C211.598,30.196 215.215,30.968 218.258,32.509C221.299,34.051 223.656,36.184 225.323,38.905C226.989,41.63 227.856,44.793 227.923,48.401L224.783,48.401C224.846,44.793 225.763,41.627 227.529,38.905C229.296,36.184 231.683,34.051 234.694,32.509C237.701,30.968 241.134,30.196 244.998,30.196L245.005,30.192Z" style="fill-rule:nonzero;"/><path d="M88.996,28.935C74.404,28.935 62.576,40.794 62.576,55.431C62.576,70.069 74.401,81.928 88.996,81.928C103.591,81.928 115.415,70.069 115.415,55.431C115.415,40.794 103.587,28.935 88.996,28.935ZM88.996,68.678C81.698,68.678 75.788,62.747 75.788,55.431C75.788,48.116 81.702,42.185 88.996,42.185C96.29,42.185 102.204,48.116 102.204,55.431C102.204,62.747 96.29,68.678 88.996,68.678Z" style="fill-rule:nonzero;"/><path d="M303.361,28.935C288.769,28.935 276.941,40.794 276.941,55.431C276.941,70.069 288.766,81.928 303.361,81.928C317.956,81.928 329.781,70.069 329.781,55.431C329.781,40.794 317.953,28.935 303.361,28.935ZM303.361,68.678C296.064,68.678 290.153,62.747 290.153,55.431C290.153,48.116 296.067,42.185 303.361,42.185C310.655,42.185 316.569,48.116 316.569,55.431C316.569,62.747 310.655,68.678 303.361,68.678Z" style="fill-rule:nonzero;"/><path d="M421.164,55.705C423.261,51.741 425.569,47.626 427.651,44.156C431.377,38.044 440.769,24.479 442.11,23.137C443.154,22.243 445.092,22.392 445.39,23.435C445.39,23.882 443.75,26.715 441.365,29.994C434.21,40.131 428.545,49.523 422.284,61.448L420.346,64.877L425.116,61.001C433.166,54.144 438.831,51.908 441.961,54.442C443.899,55.933 443.75,58.467 441.663,61.746C440.769,63.237 440.173,64.43 440.322,64.579C440.62,64.877 446.434,63.833 448.371,63.088C452.098,61.746 455.676,60.852 459.254,58.02C459.726,57.642 460.164,57.298 460.57,56.989C460.646,56.612 460.784,56.238 460.99,55.784C461.884,53.846 463.375,52.653 464.717,52.653C465.164,52.653 465.462,52.653 465.76,52.802C467.102,53.399 467.102,54.293 465.76,55.188C465.424,55.371 465.139,55.591 464.903,55.85C464.908,55.877 464.913,55.905 464.918,55.933C465,56.34 464.769,56.793 464.153,57.412C463.983,58.293 464.072,59.385 464.419,60.703C465.164,63.536 465.462,63.983 466.506,63.386C466.804,63.088 470.68,61.598 474.854,59.958C479.028,58.318 483.649,56.827 485.885,55.933C490.059,54.442 491.251,54.442 491.251,55.784C491.251,56.529 490.357,57.125 487.077,58.318C484.841,59.212 479.773,61.001 475.003,62.79L466.506,66.219L466.207,68.455C465.611,71.734 463.524,74.567 460.543,75.759C457.86,76.952 454.729,77.101 453.238,76.207C451.897,75.312 451.897,72.778 453.387,71.287C454.431,70.095 458.456,67.113 460.99,65.921L462.183,65.175L461.139,61.449C461.027,60.932 460.928,60.48 460.844,60.079C453.517,65.545 449.053,66.398 440.471,67.113C437.34,67.411 436.148,67.709 433.912,69.051C428.098,72.181 419.899,70.84 424.371,67.411C426.011,66.219 428.694,65.324 432.123,64.877C434.359,64.728 435.104,64.43 436.297,63.088C439.576,59.659 440.769,56.082 438.682,56.082C435.7,56.082 427.651,62.045 420.346,69.796C416.47,73.97 414.98,74.865 413.936,73.97C413.191,73.523 413.489,72.181 415.427,67.56C416.078,65.955 417.007,63.932 418.107,61.687C415.321,63.953 412.059,66.324 409.586,67.709C403.026,71.287 399.3,71.734 396.318,69.349C394.678,68.007 394.529,67.56 394.529,65.324L394.529,62.939L390.952,65.622C384.094,70.839 379.175,72.628 376.492,70.989C372.765,68.752 377.834,59.659 385.138,55.634C387.225,54.442 389.163,53.845 390.803,53.696C392.89,53.696 394.38,54.591 395.275,56.38L396.169,57.87L397.66,56.678C399.3,55.336 399.896,55.336 400.939,56.231C401.387,56.827 401.238,57.423 399.896,59.808C397.958,63.386 397.362,66.069 398.256,67.411C398.703,68.156 399.151,68.305 400.939,68.156C404.219,67.709 408.542,65.473 415.399,59.957C417.337,58.467 418.828,57.423 419.871,56.529C420.363,56.192 420.791,55.919 421.164,55.705ZM459.35,73.076C461.586,71.436 463.524,68.455 462.183,68.455C461.586,68.455 456.22,72.48 455.623,73.374C455.176,74.12 455.325,74.12 456.369,74.12C457.114,74.12 458.456,73.672 459.35,73.076ZM389.759,62.939C393.188,60.405 393.188,60.255 392.89,58.765C392.591,57.87 392.144,56.976 391.995,56.827C391.697,56.678 391.399,56.529 391.101,56.529C387.821,56.38 379.771,63.386 378.728,67.709C378.281,69.647 379.175,69.498 383.051,67.262C384.691,66.367 387.672,64.28 389.759,62.939Z" style="fill-rule:nonzero;"/><path d="M347.342,82.318C350.175,75.759 362.846,50.566 369.852,37.597C374.622,28.653 389.828,4.205 392.511,1.224C393.554,-0.118 395.045,-0.416 396.089,0.627C396.536,1.075 396.387,1.969 394.896,4.801C394.002,6.888 392.809,8.528 392.362,8.528C391.318,8.826 379.393,27.907 372.535,40.28C364.337,55.187 350.026,83.511 350.473,83.809C350.473,83.958 354.498,83.66 359.119,83.362C370.299,82.467 399.07,82.318 404.287,83.213C410.548,84.107 412.337,85.449 410.697,87.536C409.654,88.877 406.971,88.728 406.971,87.387C406.971,86.939 406.822,86.343 406.374,86.194C406.076,86.045 401.604,85.598 396.387,85.3C389.082,85.001 384.163,85.001 374.622,85.3C360.759,85.896 343.914,87.237 336.758,88.281C334.075,88.728 331.392,89.175 330.647,89.175C329.901,89.324 329.156,89.324 328.858,89.026C327.963,88.43 328.56,87.088 330.05,86.641C331.839,86.045 342.423,84.554 344.659,84.554C346.299,84.554 346.448,84.405 347.342,82.318Z" style="fill-rule:nonzero;"/><path d="M54.746,80.498L54.746,50.952L47.87,50.952L47.87,37.25L34.213,37.25L34.213,30.373L20.541,30.373L20.541,37.25L6.86,37.25L6.86,50.952L0.018,50.952L0.018,80.498L13.691,80.498L13.691,50.952L20.541,50.952L20.541,44.095L34.213,44.095L34.213,50.952L41.098,50.952L41.098,80.498L54.746,80.498Z"/><path d="M169.902,76.014L169.902,62.297L176.766,62.332L176.766,48.58L169.902,48.58L169.902,34.841L156.234,34.841L156.234,27.949L142.52,27.949L142.52,34.841L128.832,34.841L128.832,48.58L122.002,48.58L122.002,62.297L128.832,62.297L128.832,76.014L142.52,76.014L142.52,82.9L156.234,82.9L156.234,76.014L169.902,76.014ZM142.532,41.744L142.532,48.551L135.685,48.551L135.685,62.285L142.532,62.285L142.532,69.142L156.238,69.142L156.238,62.285L163.097,62.285L163.097,48.551L156.238,48.551L156.238,41.744L142.532,41.744Z"/></svg>