<svg width="18" height="18" viewBox="0 0 18 18" fill="none" xmlns="http://www.w3.org/2000/svg">
<g clip-path="url(#clip0_1983_1117)">
<path d="M1.6875 3.9375V7.3125H5.0625" stroke="white" stroke-linecap="square" stroke-linejoin="round"/>
<path d="M4.75189 13.4999C5.63633 14.3346 6.74714 14.8902 7.94552 15.0972C9.1439 15.3042 10.3767 15.1535 11.4899 14.6639C12.6031 14.1742 13.5474 13.3674 14.2047 12.3442C14.8619 11.321 15.2031 10.1268 15.1856 8.9108C15.1681 7.6948 14.7926 6.51092 14.1061 5.5071C13.4196 4.50328 12.4525 3.72401 11.3256 3.26668C10.1987 2.80935 8.96209 2.69423 7.77017 2.9357C6.57826 3.17717 5.48393 3.76453 4.62392 4.62438L2.04492 6.95455" stroke="white" stroke-linecap="square" stroke-linejoin="round"/>
</g>
<defs>
<clipPath id="clip0_1983_1117">
<rect width="18" height="18" fill="white"/>
</clipPath>
</defs>
</svg>
