<svg width="7" height="181" viewBox="0 0 7 181" fill="none" xmlns="http://www.w3.org/2000/svg">
<rect x="7" width="1" height="7" transform="rotate(90 7 0)" fill="black"/>
<rect x="7" y="3" width="1" height="7" transform="rotate(90 7 3)" fill="black"/>
<rect x="7" y="6" width="1" height="7" transform="rotate(90 7 6)" fill="black"/>
<rect x="7" y="9" width="1" height="7" transform="rotate(90 7 9)" fill="black"/>
<rect x="7" y="12" width="1" height="7" transform="rotate(90 7 12)" fill="black"/>
<rect x="7" y="15" width="1" height="7" transform="rotate(90 7 15)" fill="black"/>
<rect x="7" y="18" width="1" height="7" transform="rotate(90 7 18)" fill="black"/>
<rect x="7" y="21" width="1" height="7" transform="rotate(90 7 21)" fill="black"/>
<rect x="7" y="24" width="1" height="7" transform="rotate(90 7 24)" fill="black"/>
<rect x="7" y="27" width="1" height="7" transform="rotate(90 7 27)" fill="black"/>
<rect x="7" y="30" width="1" height="7" transform="rotate(90 7 30)" fill="black"/>
<rect x="7" y="33" width="1" height="7" transform="rotate(90 7 33)" fill="black"/>
<rect x="7" y="36" width="1" height="7" transform="rotate(90 7 36)" fill="black"/>
<rect x="7" y="39" width="1" height="7" transform="rotate(90 7 39)" fill="black"/>
<rect x="7" y="42" width="1" height="7" transform="rotate(90 7 42)" fill="black"/>
<rect x="7" y="45" width="1" height="7" transform="rotate(90 7 45)" fill="black"/>
<rect x="7" y="48" width="1" height="7" transform="rotate(90 7 48)" fill="black"/>
<rect x="7" y="51" width="1" height="7" transform="rotate(90 7 51)" fill="black"/>
<rect x="7" y="54" width="1" height="7" transform="rotate(90 7 54)" fill="black"/>
<rect x="7" y="57" width="1" height="7" transform="rotate(90 7 57)" fill="black"/>
<rect x="7" y="60" width="1" height="7" transform="rotate(90 7 60)" fill="black"/>
<rect x="7" y="63" width="1" height="7" transform="rotate(90 7 63)" fill="black"/>
<rect x="7" y="66" width="1" height="7" transform="rotate(90 7 66)" fill="black"/>
<rect x="7" y="69" width="1" height="7" transform="rotate(90 7 69)" fill="black"/>
<rect x="7" y="72" width="1" height="7" transform="rotate(90 7 72)" fill="black"/>
<rect x="7" y="75" width="1" height="7" transform="rotate(90 7 75)" fill="black"/>
<rect x="7" y="78" width="1" height="7" transform="rotate(90 7 78)" fill="black"/>
<rect x="7" y="81" width="1" height="7" transform="rotate(90 7 81)" fill="black"/>
<rect x="7" y="84" width="1" height="7" transform="rotate(90 7 84)" fill="black"/>
<rect x="7" y="87" width="1" height="7" transform="rotate(90 7 87)" fill="black"/>
<rect x="7" y="90" width="1" height="7" transform="rotate(90 7 90)" fill="black"/>
<rect x="7" y="93" width="1" height="7" transform="rotate(90 7 93)" fill="black"/>
<rect x="7" y="96" width="1" height="7" transform="rotate(90 7 96)" fill="black"/>
<rect x="7" y="99" width="1" height="7" transform="rotate(90 7 99)" fill="black"/>
<rect x="7" y="102" width="1" height="7" transform="rotate(90 7 102)" fill="black"/>
<rect x="7" y="105" width="1" height="7" transform="rotate(90 7 105)" fill="black"/>
<rect x="7" y="108" width="1" height="7" transform="rotate(90 7 108)" fill="black"/>
<rect x="7" y="111" width="1" height="7" transform="rotate(90 7 111)" fill="black"/>
<rect x="7" y="114" width="1" height="7" transform="rotate(90 7 114)" fill="black"/>
<rect x="7" y="117" width="1" height="7" transform="rotate(90 7 117)" fill="black"/>
<rect x="7" y="120" width="1" height="7" transform="rotate(90 7 120)" fill="black"/>
<rect x="7" y="123" width="1" height="7" transform="rotate(90 7 123)" fill="black"/>
<rect x="7" y="126" width="1" height="7" transform="rotate(90 7 126)" fill="black"/>
<rect x="7" y="129" width="1" height="7" transform="rotate(90 7 129)" fill="black"/>
<rect x="7" y="132" width="1" height="7" transform="rotate(90 7 132)" fill="black"/>
<rect x="7" y="135" width="1" height="7" transform="rotate(90 7 135)" fill="black"/>
<rect x="7" y="138" width="1" height="7" transform="rotate(90 7 138)" fill="black"/>
<rect x="7" y="141" width="1" height="7" transform="rotate(90 7 141)" fill="black"/>
<rect x="7" y="144" width="1" height="7" transform="rotate(90 7 144)" fill="black"/>
<rect x="7" y="147" width="1" height="7" transform="rotate(90 7 147)" fill="black"/>
<rect x="7" y="150" width="1" height="7" transform="rotate(90 7 150)" fill="black"/>
<rect x="7" y="153" width="1" height="7" transform="rotate(90 7 153)" fill="black"/>
<rect x="7" y="156" width="1" height="7" transform="rotate(90 7 156)" fill="black"/>
<rect x="7" y="159" width="1" height="7" transform="rotate(90 7 159)" fill="black"/>
<rect x="7" y="162" width="1" height="7" transform="rotate(90 7 162)" fill="black"/>
<rect x="7" y="165" width="1" height="7" transform="rotate(90 7 165)" fill="black"/>
<rect x="7" y="168" width="1" height="7" transform="rotate(90 7 168)" fill="black"/>
<rect x="7" y="171" width="1" height="7" transform="rotate(90 7 171)" fill="black"/>
<rect x="7" y="174" width="1" height="7" transform="rotate(90 7 174)" fill="black"/>
<rect x="7" y="177" width="1" height="7" transform="rotate(90 7 177)" fill="black"/>
<rect x="7" y="180" width="1" height="7" transform="rotate(90 7 180)" fill="black"/>
</svg>
